<svg xmlns="http://www.w3.org/2000/svg" width="100" height="37" viewBox="0 0 100 37">
  <path fill="#1E2027" fill-rule="evenodd" d="M59.7984,13.9334 C57.6544,13.9334 55.9544,15.2154 55.2894,17.3664 L63.9374,17.3664 C63.7154,15.7054 62.2744,13.9334 59.7984,13.9334 L59.7984,13.9334 Z M39.0194,13.9334 C36.8754,13.9334 35.1754,15.2154 34.5104,17.3664 L43.1574,17.3664 C42.9354,15.7054 41.4954,13.9334 39.0194,13.9334 L39.0194,13.9334 Z M29.0044,9.1874 L29.0044,15.0794 C25.5644,14.6294 23.1224,15.9814 23.1224,19.7724 L23.1224,28.8544 L17.3164,28.8544 L17.3164,9.5254 L23.1224,9.5254 L23.1224,12.2274 C24.2324,10.4634 26.3044,9.0754 29.0044,9.1874 L29.0044,9.1874 Z M70.3464,29.0734 L76.1904,29.0734 L76.1904,0.0004 L70.3464,0.0004 L70.3464,29.0734 Z M16.6664,1.0924 L16.6664,6.0614 L5.7774,6.0614 L5.7774,12.3094 L15.7784,12.3094 L15.7784,17.2774 L5.7774,17.2774 L5.7774,29.0734 L0.0004,29.0734 L0.0004,1.0924 L16.6664,1.0924 Z M96.3574,22.0784 C98.3474,22.0784 100.0004,23.6184 100.0004,25.6854 C100.0004,27.7514 98.3474,29.2914 96.3574,29.2914 L96.2824,29.2914 C94.2554,29.2914 92.6404,27.7514 92.6404,25.6854 C92.6404,23.6184 94.2554,22.0784 96.2824,22.0784 L96.3574,22.0784 Z M59.7984,9.1814 C66.2284,9.1814 70.0714,14.4984 69.4064,21.0244 L55.1784,21.0244 C55.7334,23.4384 57.5804,24.8334 59.8354,24.8334 C61.7194,24.8334 62.9754,24.2304 63.7154,22.8714 L69.1844,22.8714 C68.0024,27.2094 64.2694,29.5104 59.7984,29.5104 C54.4024,29.5104 49.7834,25.2484 49.7834,19.3654 C49.7834,13.4434 54.4024,9.1814 59.7984,9.1814 L59.7984,9.1814 Z M39.0194,9.1814 C45.4484,9.1814 49.2924,14.4984 48.6274,21.0244 L34.3994,21.0244 C34.9544,23.4384 36.8014,24.8334 39.0554,24.8334 C40.9404,24.8334 42.1964,24.2304 42.9354,22.8714 L48.4054,22.8714 C47.2234,27.2094 43.4904,29.5104 39.0194,29.5104 C33.6234,29.5104 29.0044,25.2484 29.0044,19.3654 C29.0044,13.4434 33.6234,9.1814 39.0194,9.1814 L39.0194,9.1814 Z M83.2954,9.8364 L88.1324,19.8194 L92.9684,9.8364 L99.1344,9.8364 L85.0684,36.9434 L79.0874,36.9434 L85.1044,25.7264 L77.0564,9.8364 L83.2954,9.8364 Z"/>
</svg>
